<?xml version="1.0" encoding="UTF-8"?>
<svg id="Layer_2" data-name="Layer 2" xmlns="http://www.w3.org/2000/svg" viewBox="0 0 434.37 187.61">
  <g id="Layer_1-2" data-name="Layer 1">
    <g>
      <path d="M178.66,97.08v57.49l-11.44-1.72v-59.92M167.21,181.17v-33.89l11.44,1.72v36.33M211.19,185.32c-1.19-.76-2.41-1.76-3.65-3l-30.46-30.6,8.01-4.72,36.32,32.61M216.05,127.4c-.81,1.05-1.98,2.19-3.5,3.43l-28.03,24.6-7.15-5.58,32.61-31.61"/>
      <path d="M236.58,121.82c2.58-1.33,5.55-2.36,8.94-3.07,3.38-.72,6.98-1.07,10.8-1.07,8.3,0,14.88,1.86,19.74,5.58s7.29,9.58,7.29,17.59v33.9c0,2.1-.4,3.7-1.21,4.79-.81,1.1-2.03,2.12-3.65,3.08-2.29,1.24-5.34,2.38-9.15,3.43-3.81,1.05-8.1,1.57-12.87,1.57-8.97,0-15.9-1.76-20.81-5.29-4.91-3.53-7.36-8.63-7.36-15.3,0-6.2,2.07-10.94,6.22-14.23,4.15-3.29,9.89-5.27,17.24-5.93l20.31-2v-4.01c0-4.77-1.43-8.25-4.29-10.44-2.86-2.19-6.72-3.29-11.58-3.29-3.91,0-7.65.57-11.23,1.72M256.46,178.17c4,0,7.32-.4,9.94-1.22,2.62-.81,4.5-1.6,5.65-2.36v-20.74l-17.74,1.86c-4.96.38-8.63,1.48-11.01,3.29-2.38,1.81-3.58,4.43-3.58,7.87s1.41,6.29,4.22,8.29c2.81,2,6.98,3,12.52,3Z"/>
      <path d="M346.41,174.31v-48.05l11.44-.14v48.63c0,1.81-.41,3.27-1.22,4.36-.81,1.1-2.07,2.17-3.79,3.22-1.91,1.24-4.62,2.41-8.15,3.5-3.53,1.1-7.58,1.65-12.16,1.65-6.86,0-12.92-1.19-18.16-3.58-5.25-2.38-9.35-6.12-12.3-11.23-2.96-5.1-4.43-11.7-4.43-19.81s1.45-15.02,4.36-20.16c2.91-5.15,6.84-8.94,11.8-11.37,4.96-2.43,10.39-3.65,16.3-3.65,3.72,0,7.24.53,10.58,1.57,3.33,1.05,5.96,2.34,7.87,3.86v10.58c-1.81-1.81-4.17-3.36-7.08-4.65-2.91-1.29-6.32-1.93-10.23-1.93s-7.53.84-10.87,2.5c-3.34,1.67-6.01,4.41-8.01,8.22-2,3.81-3,8.92-3,15.3,0,8.68,2.1,14.99,6.29,18.95,4.19,3.96,9.77,5.93,16.73,5.93,3.34,0,6.08-.36,8.22-1.07,2.14-.71,4.08-1.6,5.79-2.65ZM357.85,97.08v31.89l-11.44.14v-36.18"/>
      <path d="M428.43,182.24c-2.05,1.57-4.77,2.84-8.15,3.79-3.39.95-7.18,1.43-11.37,1.43-7.34,0-13.71-1.34-19.09-4-5.39-2.67-9.54-6.65-12.44-11.94-2.91-5.29-4.36-11.75-4.36-19.38,0-5.43.79-10.27,2.36-14.52,1.57-4.24,3.77-7.84,6.58-10.8,2.81-2.95,6.17-5.22,10.08-6.79,3.91-1.57,8.15-2.36,12.73-2.36,5.81,0,10.94,1.24,15.37,3.72,4.43,2.48,7.91,5.93,10.44,10.37,2.53,4.43,3.79,9.51,3.79,15.23,0,2.1-.48,3.6-1.43,4.5-.95.91-2.29,1.45-4,1.65l-48.05,6.72-.57-9.01,43.19-5.86c-.38-5.24-2.19-9.56-5.43-12.94-3.24-3.38-7.72-5.08-13.44-5.08s-10.8,2.12-14.66,6.36c-3.86,4.24-5.79,10.32-5.79,18.23v3.15c.67,7.63,3.17,13.42,7.51,17.38,4.34,3.96,10.27,5.93,17.81,5.93,4,0,7.63-.66,10.87-2,3.24-1.33,5.81-2.76,7.72-4.29"/>
    </g>
    <path d="M131.49,185.86l-37.45-36.88c-4.58-5.52-2.2-12.29,5.03-13.16,5.27-.64,8.27-.33,13.57-2.39,31.28-12.2,32.13-56.88,1.16-69.71-25.01-10.36-50.83,6.67-52.53,33.21-1.47,23.11,1.15,47.78.03,71.05-4.76,24.38-40.15,23.32-42.97-1.63l.04-116.66C.77,43.94-6.06,23.33,6.25,8.87,17.99-4.94,40.39-2.22,48.18,14.25c6.97,14.74-.87,30.07-15.54,35.44l.27,116.92c2.74,6.27,11.35,5.97,13.95-.41,1.39-23.02-1.46-47.51.12-70.35,2.69-38.97,44.04-62.71,78.35-42.57,39.15,22.98,31.64,80.85-10.64,94.88l36.24,37.54M36.29,25.29c0-6.02-4.88-10.9-10.9-10.9s-10.9,4.88-10.9,10.9,4.88,10.9,10.9,10.9,10.9-4.88,10.9-10.9Z"/>
  </g>
</svg>