<?xml version="1.0" standalone="no"?>
<!DOCTYPE svg PUBLIC "-//W3C//DTD SVG 20010904//EN"
 "http://www.w3.org/TR/2001/REC-SVG-20010904/DTD/svg10.dtd">
<svg version="1.0" xmlns="http://www.w3.org/2000/svg"
 width="310.000000pt" height="162.000000pt" viewBox="0 0 310.000000 162.000000"
 preserveAspectRatio="xMidYMid meet">

<g transform="translate(0.000000,162.000000) scale(0.100000,-0.100000)"
fill="#000000" stroke="none">
<path d="M2378 1443 c-18 -3 -28 -10 -28 -21 0 -15 2 -15 10 -2 6 10 10 11 10
3 0 -20 30 -15 30 5 0 14 2 15 10 2 8 -13 10 -12 10 3 0 9 -3 16 -7 16 -5 -1
-20 -4 -35 -6z"/>
<path d="M2431 1434 c0 -11 3 -14 6 -6 3 7 2 16 -1 19 -3 4 -6 -2 -5 -13z"/>
<path d="M2313 1425 c-3 -9 -3 -19 1 -22 3 -4 6 2 6 13 0 16 2 17 10 4 8 -13
10 -12 10 3 0 21 -18 23 -27 2z"/>
<path d="M2256 1415 c-4 -11 1 -15 19 -15 16 0 25 6 25 15 0 8 -9 15 -19 15
-10 0 -21 -7 -25 -15z"/>
<path d="M2181 1404 c0 -11 3 -14 6 -6 3 7 2 16 -1 19 -3 4 -6 -2 -5 -13z"/>
<path d="M2200 1403 c0 -15 2 -16 10 -3 6 10 10 11 10 3 0 -7 4 -13 10 -13 5
0 7 7 4 15 -8 21 -34 19 -34 -2z"/>
<path d="M2110 1395 c0 -10 10 -15 30 -15 20 0 30 5 30 15 0 10 -10 15 -30 15
-20 0 -30 -5 -30 -15z"/>
<path d="M2057 1394 c-10 -11 3 -24 24 -24 10 0 19 7 19 15 0 15 -31 21 -43 9z"/>
<path d="M2418 1383 c12 -2 30 -2 40 0 9 3 -1 5 -23 4 -22 0 -30 -2 -17 -4z"/>
<path d="M2318 1373 c7 -3 16 -2 19 1 4 3 -2 6 -13 5 -11 0 -14 -3 -6 -6z"/>
<path d="M2498 1373 c7 -3 16 -2 19 1 4 3 -2 6 -13 5 -11 0 -14 -3 -6 -6z"/>
<path d="M2298 1333 c-14 -3 -18 -15 -18 -53 0 -52 -1 -54 -42 -64 -24 -5 -28
-3 -28 14 0 11 6 20 13 20 8 0 14 7 14 15 0 8 -6 15 -14 15 -18 0 -16 20 5 37
16 14 16 14 -1 9 -10 -3 -23 -6 -29 -6 -6 0 -7 -7 -4 -16 3 -8 3 -33 0 -55 -5
-28 -11 -39 -24 -39 -10 0 -21 6 -23 13 -4 10 -6 10 -6 0 -1 -18 -21 -16 -21
1 0 8 8 17 18 19 9 3 -1 6 -23 7 l-40 3 40 7 c22 4 32 8 23 9 -10 0 -18 8 -18
16 0 7 8 19 18 25 14 10 13 11 -8 6 -14 -3 -35 -6 -47 -6 -16 0 -22 -6 -21
-17 1 -10 0 -35 0 -55 -2 -31 -6 -38 -22 -38 -18 0 -20 -7 -20 -68 0 -74 -7
-83 -68 -97 -24 -5 -33 -3 -38 9 -3 9 -10 13 -15 10 -5 -3 -9 31 -9 75 0 75
-1 81 -21 81 -17 0 -20 -5 -17 -32 1 -18 7 -36 13 -40 6 -5 5 -8 -2 -8 -9 0
-13 -22 -13 -76 0 -47 -4 -73 -10 -69 -5 3 -10 37 -10 75 l0 69 -32 4 -33 4
33 1 c17 1 32 6 32 11 0 6 -15 12 -32 14 l-33 4 33 1 c24 2 32 7 32 21 0 15
-10 20 -55 26 -30 3 -55 11 -55 16 0 5 -11 9 -25 9 -15 0 -25 -6 -25 -14 0
-10 -26 -15 -102 -21 -57 -3 -127 -8 -155 -10 -30 -2 -53 0 -53 5 0 6 -9 10
-20 10 -11 0 -20 -4 -20 -10 0 -5 -7 -10 -16 -10 -11 0 -15 -8 -12 -32 1 -18
7 -36 12 -40 5 -3 -7 -10 -27 -13 -20 -4 -37 -11 -37 -17 0 -11 33 -6 42 7 5
6 8 5 8 -4 0 -11 3 -11 14 -1 12 9 15 8 13 -7 -1 -15 -7 -18 -24 -15 -13 2
-23 -1 -23 -7 0 -6 8 -11 18 -11 16 -1 16 -1 0 -14 -23 -17 -23 -23 0 -29 16
-4 16 -5 0 -6 -21 -1 -24 -17 -5 -24 9 -4 9 -8 -3 -16 -8 -5 -18 -7 -23 -4 -8
5 -73 9 -277 18 -41 1 -83 3 -92 4 -22 1 -25 41 -3 41 8 0 15 5 15 10 0 15
-27 12 -44 -6 -17 -16 -76 -12 -76 6 0 11 -75 7 -92 -6 -7 -5 -20 -9 -28 -8
-8 1 -23 2 -33 3 -9 0 -16 4 -16 9 6 35 -25 46 -36 12 -4 -11 -11 -18 -16 -14
-5 3 -7 10 -4 15 4 5 1 9 -4 9 -6 0 -11 -13 -11 -30 0 -23 4 -30 20 -30 11 0
20 -7 20 -15 0 -12 -4 -13 -19 -6 -15 9 -20 7 -24 -11 -4 -12 -9 -19 -13 -15
-4 4 -13 2 -21 -4 -10 -9 -13 -8 -13 0 0 7 -4 10 -9 7 -5 -3 -14 0 -20 8 -9
11 -17 11 -36 2 l-25 -11 33 -6 32 -6 -37 -2 c-23 0 -38 4 -38 11 0 6 -3 8 -7
5 -3 -4 -13 2 -21 14 -10 15 -21 19 -41 15 -14 -3 -20 -3 -13 0 18 8 15 22 -5
20 -10 0 -17 5 -15 12 1 6 -2 12 -8 12 -5 0 -10 -4 -10 -10 0 -5 -5 -10 -11
-10 -5 0 -7 5 -4 10 9 15 -4 12 -21 -5 -11 -11 -20 -12 -33 -5 -14 7 -20 27
-26 85 l-7 75 -44 0 c-40 0 -44 -2 -44 -25 0 -18 -5 -25 -19 -25 -15 0 -21 10
-26 40 -4 22 -11 40 -16 40 -12 0 -11 -17 1 -41 7 -13 7 -19 0 -19 -6 0 -10
-59 -10 -167 l0 -168 103 -28 c119 -32 138 -34 80 -7 -24 10 -43 24 -43 30 0
6 12 4 31 -5 17 -9 37 -14 45 -11 8 3 23 -4 33 -15 12 -13 33 -21 55 -22 19 0
32 -5 29 -10 -4 -6 11 -8 38 -4 34 5 40 5 26 -4 -21 -13 -175 -39 -228 -39
-26 0 -41 6 -50 21 -8 11 -38 29 -67 39 l-52 19 0 -30 c0 -16 5 -29 11 -29 5
0 8 4 5 8 -7 12 68 1 79 -11 17 -19 53 -37 74 -37 11 0 23 -5 27 -11 9 -14
-15 -29 -34 -21 -10 3 -13 1 -8 -7 6 -8 -2 -11 -28 -8 -48 5 -55 14 -20 28
l29 11 -24 9 c-14 6 -32 8 -40 6 -9 -3 -5 -5 8 -6 24 -1 24 -1 5 -16 -21 -16
-48 -20 -40 -6 3 5 -6 9 -19 9 -44 0 -31 -35 25 -63 27 -14 56 -25 64 -25 8 0
65 -24 127 -54 255 -121 539 -254 621 -291 l87 -40 1 -58 0 -58 -31 16 c-17 9
-37 14 -45 11 -8 -3 -14 1 -14 8 0 16 -62 48 -82 43 -7 -2 -9 -2 -5 1 8 4 -22
31 -35 32 -3 0 -9 -8 -11 -18 -4 -14 -5 -13 -6 4 -1 23 -43 50 -60 40 -6 -4
-11 -1 -11 7 0 13 -68 52 -77 43 -4 -4 -21 8 -57 39 -6 6 -20 12 -31 13 -11 2
-23 9 -27 15 -4 7 -8 8 -8 4 0 -5 -12 1 -26 12 -15 11 -30 19 -34 16 -4 -3
-10 2 -14 10 -3 8 -12 12 -21 9 -8 -3 -15 -1 -15 5 0 7 -15 19 -33 27 -31 14
-47 22 -84 44 -10 6 -26 13 -35 16 -10 4 -18 9 -18 13 0 6 -56 43 -70 47 -3 1
-20 5 -38 9 -18 4 -35 12 -38 16 -19 32 -24 -14 -24 -250 0 -250 1 -259 20
-264 11 -3 20 -1 20 5 0 5 5 6 11 3 6 -4 8 -13 5 -21 -4 -10 4 -14 30 -14 21
0 33 4 29 10 -3 6 1 10 9 10 8 0 18 -4 21 -10 3 -6 48 -10 99 -10 77 0 96 3
109 18 10 10 17 24 17 32 0 19 -31 39 -60 40 -24 1 -75 30 -52 30 7 0 12 4 12
9 0 4 -18 11 -40 14 -22 3 -47 12 -55 21 -9 9 -25 16 -35 16 -10 0 -22 5 -25
10 -5 7 10 9 42 7 53 -5 83 -15 83 -27 0 -5 9 -6 20 -3 23 6 57 -16 41 -27 -6
-3 6 -6 27 -6 20 -1 48 -4 62 -8 14 -4 31 -8 38 -8 6 -1 12 -5 12 -10 0 -4 3
-7 8 -6 7 1 23 -4 87 -33 36 -15 74 -23 99 -20 5 1 3 7 -3 14 -8 10 -7 14 4
14 8 0 12 -4 9 -9 -3 -4 2 -8 11 -8 9 0 15 -6 12 -12 -2 -8 -20 -12 -43 -12
-21 1 -31 0 -21 -3 9 -2 17 -11 17 -19 0 -19 78 -14 90 6 7 11 10 12 10 2 0
-7 5 -10 11 -6 6 3 15 0 20 -7 8 -12 11 -12 19 1 6 10 10 11 10 3 0 -10 28
-13 105 -13 87 0 105 3 105 15 0 14 4 14 36 0 29 -12 85 -15 278 -15 l241 0
-62 37 c-35 21 -63 44 -63 53 0 11 -2 12 -8 2 -7 -10 -14 -8 -34 8 -15 11 -31
20 -38 20 -6 0 -22 11 -36 25 -13 13 -27 25 -29 25 -3 0 -9 0 -14 0 -13 0 -71
50 -71 61 0 5 12 7 27 3 22 -4 25 -3 13 5 -13 9 -11 11 7 11 24 0 160 -68 430
-216 l61 -34 265 0 266 0 4 23 4 22 2 -22 1 -23 202 0 c111 0 199 2 197 4 -2
2 -53 22 -114 44 -60 22 -168 61 -238 86 -78 29 -135 45 -147 41 -11 -4 -18
-10 -15 -15 3 -5 0 -12 -6 -16 -8 -4 -9 -3 -5 5 4 6 0 14 -8 17 -9 3 -14 10
-11 15 14 22 -9 58 -47 74 -22 9 -42 14 -45 12 -2 -3 10 -10 28 -16 18 -6 29
-14 26 -17 -9 -9 -127 36 -127 48 0 6 7 8 15 4 8 -3 15 -1 15 5 0 6 9 7 23 3
48 -15 51 -15 27 0 -32 20 -23 20 30 1 24 -8 45 -13 47 -11 2 2 -13 10 -34 17
l-37 12 89 33 c87 31 89 33 62 43 -16 6 -34 11 -41 11 -6 0 -28 8 -48 18 -19
10 -43 17 -52 16 -9 -1 -16 1 -16 6 0 5 -8 7 -17 6 -26 -4 -127 30 -131 44 -3
9 1 11 14 6 11 -4 80 -23 154 -43 74 -19 138 -37 142 -39 3 -2 17 0 31 5 20 8
26 6 30 -8 3 -12 18 -21 43 -26 22 -4 113 -27 204 -52 91 -24 226 -60 300 -79
74 -20 157 -42 184 -50 74 -21 86 -19 86 15 0 29 -22 47 -41 35 -6 -3 -15 -1
-22 4 -18 14 -67 24 -67 13 0 -6 -16 -3 -35 5 -19 7 -48 14 -65 14 -17 0 -40
5 -51 10 -15 9 -19 7 -19 -7 0 -14 -3 -12 -13 7 -18 35 -119 56 -130 28 -4 -9
-6 -7 -6 3 -1 15 -96 49 -139 49 -10 0 -27 7 -38 15 -10 8 -31 15 -45 15 -14
0 -39 4 -55 10 -16 5 -42 11 -59 14 -16 3 -55 12 -85 21 -30 9 -62 17 -70 19
-8 1 -22 6 -31 10 -10 4 -23 7 -30 5 -30 -4 -43 1 -33 11 13 13 275 -43 651
-140 l72 -18 4 21 c4 21 4 21 6 -2 1 -16 5 -21 16 -17 8 3 15 2 15 -2 0 -5 24
-14 53 -22 28 -7 58 -15 65 -17 9 -4 12 10 12 51 0 31 4 56 10 56 6 0 8 -22 5
-54 -5 -59 -8 -56 60 -71 17 -3 38 -8 48 -11 16 -5 17 20 16 475 0 308 -4 481
-10 481 -6 0 -8 4 -4 9 3 6 -15 13 -40 16 -30 5 -45 12 -45 22 0 31 -35 8 -38
-25 -2 -17 -9 -33 -15 -34 -7 0 -35 -2 -64 -3 l-52 -3 5 54 c4 34 2 54 -4 54
-5 0 -12 -7 -16 -15 -3 -8 -12 -15 -21 -15 -9 0 -15 -9 -15 -25 0 -17 -6 -25
-17 -25 -13 0 -14 3 -5 12 7 7 12 20 12 29 0 22 -95 38 -113 19 -9 -10 -9 -11
1 -6 8 5 12 0 12 -13 0 -28 28 -27 33 2 4 19 4 18 6 -5 1 -22 -3 -28 -20 -28
-18 0 -21 -5 -17 -30 3 -16 1 -30 -4 -30 -4 0 -8 -38 -8 -85 0 -79 13 -114 23
-62 l4 22 2 -22 c0 -13 7 -23 15 -23 8 0 17 10 19 23 l4 22 2 -22 c1 -27 18
-31 23 -5 3 9 6 -4 9 -30 3 -31 0 -48 -7 -48 -7 0 -9 10 -6 25 4 24 2 25 -47
25 -48 0 -51 -2 -51 -25 0 -32 27 -34 33 -2 l4 22 2 -22 c0 -13 5 -23 9 -23 5
0 14 10 20 23 9 18 10 13 6 -28 -7 -56 -14 -73 -14 -32 0 23 -4 27 -29 27 -19
0 -31 -6 -35 -17 -3 -10 -3 48 0 130 5 125 3 147 -9 147 -18 0 -27 44 -17 81
8 25 6 29 -12 29 -17 0 -20 -5 -16 -30 4 -24 1 -30 -14 -30 -11 0 -18 -7 -18
-20 0 -22 -25 -27 -33 -7 -3 8 -1 20 3 28 5 8 4 19 -2 26 -7 9 -7 17 1 27 13
15 -4 26 -42 26 -18 0 -22 -6 -22 -30 0 -37 8 -38 21 -2 l10 27 5 -32 c5 -29
3 -33 -18 -33 -19 0 -22 -4 -18 -22 5 -22 3 -23 -47 -24 -49 -2 -73 9 -62 28
3 4 15 8 27 8 18 0 19 2 7 10 -10 6 -11 10 -2 10 6 0 12 5 12 11 0 5 -4 8 -8
5 -4 -2 -14 5 -21 16 -12 19 -11 20 8 15 12 -3 21 -1 21 4 0 9 -60 11 -92 2z
m39 -28 c0 -8 -9 -15 -19 -15 -10 0 -18 7 -18 15 0 8 8 15 18 15 10 0 19 -7
19 -15z m-227 -20 c0 -8 -7 -15 -15 -15 -8 0 -15 7 -15 15 0 8 7 15 15 15 8 0
15 -7 15 -15z m620 -80 c0 -52 -4 -85 -10 -85 -6 0 -9 16 -6 38 3 20 5 58 5
85 1 26 3 47 6 47 3 0 5 -38 5 -85z m-377 68 c-7 -2 -19 -2 -25 0 -7 3 -2 5
12 5 14 0 19 -2 13 -5z m-23 -33 c0 -11 -7 -20 -15 -20 -27 0 -18 30 13 39 1
1 2 -8 2 -19z m160 6 c0 -8 -4 -18 -10 -21 -5 -3 -10 3 -10 14 0 12 5 21 10
21 6 0 10 -6 10 -14z m90 -11 c0 -8 -4 -15 -10 -15 -5 0 -7 7 -4 15 4 8 8 15
10 15 2 0 4 -7 4 -15z m-470 -10 c0 -8 -4 -15 -9 -15 -5 0 -11 7 -15 15 -3 9
0 15 9 15 8 0 15 -7 15 -15z m586 -11 c-3 -9 -6 -45 -6 -80 0 -35 -3 -64 -7
-64 -5 0 -7 17 -6 37 1 21 2 57 2 81 1 23 6 42 12 42 6 0 8 -7 5 -16z m68 -16
c-1 -13 -3 -34 -4 -48 -2 -23 -3 -23 -9 5 -8 34 -2 77 9 70 3 -2 6 -14 4 -27z
m-541 -5 c-7 -2 -19 -2 -25 0 -7 3 -2 5 12 5 14 0 19 -2 13 -5z m-117 -40
c-10 -10 -19 5 -10 18 6 11 8 11 12 0 2 -7 1 -15 -2 -18z m120 0 c-10 -10 -19
5 -10 18 6 11 8 11 12 0 2 -7 1 -15 -2 -18z m104 19 c0 -13 -12 -22 -22 -16
-10 6 -1 24 13 24 5 0 9 -4 9 -8z m40 -2 c0 -5 -4 -10 -10 -10 -5 0 -10 5 -10
10 0 6 5 10 10 10 6 0 10 -4 10 -10z m-801 -34 c0 -11 -3 -15 -6 -8 -3 7 -25
12 -58 12 -43 0 -54 -4 -58 -17 -4 -14 -5 -13 -6 4 -1 23 -1 23 107 29 17 2
22 -3 21 -20z m-229 -6 c0 -5 -5 -10 -11 -10 -5 0 -7 5 -4 10 3 6 8 10 11 10
2 0 4 -4 4 -10z m877 -42 c-3 -7 -5 -2 -5 12 0 14 2 19 5 13 2 -7 2 -19 0 -25z
m99 23 c-4 -5 0 -12 6 -14 8 -3 6 -6 -4 -6 -18 -1 -24 10 -11 22 9 10 15 8 9
-2z m45 2 c-11 -5 -11 -7 0 -14 11 -7 10 -9 -3 -9 -18 0 -23 11 -11 23 3 4 11
7 17 6 6 0 5 -3 -3 -6z m-224 -25 c-3 -8 -6 -5 -6 6 -1 11 2 17 5 13 3 -3 4
-12 1 -19z m580 -10 c-3 -7 -5 -2 -5 12 0 14 2 19 5 13 2 -7 2 -19 0 -25z m53
0 c0 -5 -9 -8 -20 -8 -18 0 -19 3 -8 20 9 14 14 16 20 7 4 -7 8 -15 8 -19z
m-2743 -25 c-3 -10 -5 -2 -5 17 0 19 2 27 5 18 2 -10 2 -26 0 -35z m50 5 c-3
-8 -6 -5 -6 6 -1 11 2 17 5 13 3 -3 4 -12 1 -19z m2140 6 c-3 -3 -12 -4 -19
-1 -8 3 -5 6 6 6 11 1 17 -2 13 -5z m765 -100 c-6 -33 -24 -30 -18 4 2 15 5
32 5 37 1 6 5 4 10 -3 4 -7 6 -24 3 -38z m-1652 32 c0 -2 -7 -7 -16 -10 -8 -3
-12 -2 -9 4 6 10 25 14 25 6z m1137 -38 c-3 -8 -6 -5 -6 6 -1 11 2 17 5 13 3
-3 4 -12 1 -19z m-1547 -8 c0 -5 -8 -7 -17 -5 -10 2 -21 4 -25 4 -5 1 -8 5 -8
10 0 4 11 6 25 3 14 -2 25 -8 25 -12z m1293 0 c3 -13 0 -20 -8 -20 -11 0 -13
14 -6 38 3 8 9 -1 14 -18z m-1607 1 c-7 -10 16 -21 44 -21 10 0 20 -5 22 -11
2 -7 25 -11 55 -11 32 1 57 -4 66 -12 9 -9 19 -11 28 -5 20 13 41 11 33 -2 -5
-9 1 -10 20 -5 18 4 25 3 21 -4 -3 -5 2 -10 11 -10 24 0 14 -8 -18 -14 -15 -2
-29 1 -32 7 -2 7 -5 2 -5 -10 -1 -18 -6 -22 -28 -21 -16 1 -33 5 -39 10 -7 5
-16 2 -23 -6 -9 -11 -32 -13 -94 -11 -52 2 -71 0 -52 -5 l30 -8 -32 -1 c-39
-1 -47 25 -10 32 15 4 12 5 -8 4 -22 -2 -30 -7 -29 -19 2 -19 -30 -26 -40 -9
-3 5 -32 6 -65 4 -32 -3 -61 -1 -64 4 -3 5 11 8 31 6 32 -2 31 -1 -10 9 -27 5
-48 14 -48 19 0 5 7 6 15 3 18 -7 85 23 102 45 7 9 13 12 13 7 0 -5 8 -2 17 5
10 9 14 9 10 2 -5 -7 0 -16 10 -21 22 -11 46 -4 37 10 -4 7 -2 8 4 4 7 -4 12
-15 12 -24 0 -18 91 -67 112 -60 5 2 -15 14 -46 28 -63 26 -74 49 -23 51 l32
2 -35 6 c-22 4 -36 12 -38 24 -2 9 2 17 8 17 6 0 9 -4 6 -9z m364 5 c0 -2 -9
-6 -20 -9 -11 -3 -20 -1 -20 4 0 5 9 9 20 9 11 0 20 -2 20 -4z m45 -6 c3 -5 1
-10 -4 -10 -6 0 -11 5 -11 10 0 6 2 10 4 10 3 0 8 -4 11 -10z m165 -4 c0 -5 7
-3 15 4 12 10 15 10 15 0 0 -9 4 -10 13 -2 9 8 16 6 25 -8 11 -18 9 -19 -36
-13 -26 3 -49 7 -51 9 -2 2 -11 -1 -20 -5 -9 -5 -27 -4 -41 2 l-25 10 23 6
c34 9 82 7 82 -3z m-397 -3 c-13 -2 -35 -2 -50 0 -16 2 -5 4 22 4 28 0 40 -2
28 -4z m-703 -7 c0 -3 -4 -8 -10 -11 -5 -3 -10 -1 -10 4 0 6 5 11 10 11 6 0
10 -2 10 -4z m2602 -21 c3 -14 1 -25 -3 -25 -5 0 -9 11 -9 25 0 14 2 25 4 25
2 0 6 -11 8 -25z m-1588 -6 c-6 -11 -24 -2 -24 11 0 5 7 7 15 4 8 -4 12 -10 9
-15z m743 -5 c-3 -3 -12 -4 -19 -1 -8 3 -5 6 6 6 11 1 17 -2 13 -5z m43 2 c0
-11 -19 -15 -25 -6 -3 5 1 10 9 10 9 0 16 -2 16 -4z m-840 -26 c-8 -14 -8 -20
0 -20 6 0 8 -4 5 -10 -3 -5 -16 -10 -28 -10 -16 0 -18 3 -8 9 11 7 10 11 -5
19 -16 9 -16 12 -4 16 8 2 22 7 30 9 8 3 16 6 18 6 1 1 -2 -8 -8 -19z m283 -3
c-4 -7 5 -8 28 -4 25 5 30 4 19 -3 -8 -6 -33 -9 -55 -8 -22 1 -49 -3 -60 -9
-11 -6 -40 -13 -65 -17 -30 -4 -38 -3 -25 3 19 8 18 9 -7 16 -15 4 -31 4 -37
1 -11 -7 -61 10 -61 21 0 5 41 7 90 7 50 -1 105 2 123 6 37 8 60 2 50 -13z
m127 13 c0 -10 -24 -30 -36 -30 -10 0 -12 19 -5 37 2 5 41 -2 41 -7z m-1140
-4 c0 -3 -4 -8 -10 -11 -5 -3 -10 -1 -10 4 0 6 5 11 10 11 6 0 10 -2 10 -4z
m660 -31 c7 -9 8 -15 2 -15 -5 0 -12 7 -16 15 -3 8 -4 15 -2 15 2 0 9 -7 16
-15z m-710 -15 c0 -5 -4 -10 -9 -10 -6 0 -13 5 -16 10 -3 6 1 10 9 10 9 0 16
-4 16 -10z m76 -11 c9 -15 -23 -21 -47 -9 -16 9 -18 14 -9 20 14 9 48 2 56
-11z m751 15 c-3 -3 -12 -4 -19 -1 -8 3 -5 6 6 6 11 1 17 -2 13 -5z m-983 -20
c9 -3 16 -10 16 -14 0 -10 -38 -1 -46 11 -6 10 7 12 30 3z m952 -3 c5 -5 29
-14 54 -20 l45 -10 -50 5 c-65 7 -87 13 -80 25 8 11 18 12 31 0z m1747 2 c-7
-2 -19 -2 -25 0 -7 3 -2 5 12 5 14 0 19 -2 13 -5z m48 -2 c6 10 8 7 6 -8 -1
-18 -7 -21 -34 -19 -40 3 -56 16 -20 16 15 0 27 6 28 13 0 8 2 8 6 -2 5 -11 7
-11 14 0z m-2018 -8 c-7 -2 -19 -2 -25 0 -7 3 -2 5 12 5 14 0 19 -2 13 -5z
m-73 -19 c-12 -13 -8 -15 33 -12 26 2 47 6 47 11 0 4 21 7 46 7 27 0 43 -4 39
-10 -3 -5 3 -10 14 -10 10 0 22 6 25 13 5 10 7 10 12 0 8 -18 25 -16 18 2 -4
8 -1 15 5 15 6 0 11 -9 11 -19 0 -18 -9 -19 -161 -20 -89 -1 -186 -3 -218 -6
l-56 -4 60 12 c33 7 67 16 75 19 50 21 66 22 50 2z m975 -32 c-7 -8 -95 9 -91
17 3 4 25 3 50 -3 25 -6 43 -12 41 -14z m-1171 -1 c-6 -6 -25 -9 -108 -16 -39
-3 -67 -3 -64 0 3 4 32 8 64 11 32 3 59 6 61 7 1 2 14 3 27 3 14 0 23 -2 20
-5z m175 -25 c-2 -2 -17 -6 -34 -10 -22 -5 -26 -4 -15 4 14 9 59 15 49 6z
m950 0 c-12 -10 -59 -15 -59 -6 0 5 14 10 32 10 17 0 29 -2 27 -4z m939 -11
c2 -2 -19 -5 -46 -6 -28 -2 -48 -1 -46 3 2 4 -6 9 -18 11 -13 3 6 3 42 0 36
-3 66 -7 68 -8z m-895 -2 c-7 -2 -19 -2 -25 0 -7 3 -2 5 12 5 14 0 19 -2 13
-5z m-933 -23 c-14 -4 -56 -8 -95 -7 l-70 1 75 6 c111 9 119 9 90 0z m1393 3
c-7 -2 -21 -2 -30 0 -10 3 -4 5 12 5 17 0 24 -2 18 -5z m-842 -19 c72 -16 98
-28 87 -39 -3 -3 -25 -1 -49 4 -24 5 -55 12 -69 15 -37 6 -60 17 -60 27 0 12
6 12 91 -7z m1019 1 c127 -17 202 -19 217 -4 12 12 33 4 33 -13 0 -14 -218 -3
-335 16 -109 18 -45 19 85 1z m655 5 c3 -5 1 -10 -4 -10 -6 0 -11 5 -11 10 0
6 2 10 4 10 3 0 8 -4 11 -10z m-25 -10 c0 -10 -39 -33 -77 -44 -17 -5 -23 -3
-23 8 0 8 13 17 30 21 16 4 32 11 35 16 8 12 35 12 35 -1z m-1344 -47 c-10
-10 -19 5 -10 18 6 11 8 11 12 0 2 -7 1 -15 -2 -18z m591 21 c-3 -3 -12 -4
-19 -1 -8 3 -5 6 6 6 11 1 17 -2 13 -5z m-1490 -26 c-3 -8 -6 -5 -6 6 -1 11 2
17 5 13 3 -3 4 -12 1 -19z m168 12 c-8 -13 30 -13 73 -1 24 7 45 5 80 -7 l47
-16 -40 -8 c-22 -5 -46 -7 -55 -4 -8 2 -2 4 15 5 17 1 25 5 20 10 -6 5 -25 7
-44 4 -22 -4 -29 -8 -20 -14 29 -18 1 -15 -60 7 -51 18 -59 23 -40 27 13 2 25
5 27 6 2 0 0 -3 -3 -9z m443 -7 c48 -11 72 -21 72 -31 0 -10 -4 -12 -12 -5 -7
6 -38 16 -68 23 -53 12 -95 29 -75 30 6 0 43 -7 83 -17z m-799 -20 c39 -20 56
-24 59 -15 2 6 8 12 14 12 6 0 6 -6 -2 -15 -10 -12 8 -24 117 -78 122 -61 128
-65 131 -96 l3 -33 -145 76 c-90 48 -146 72 -147 64 0 -7 -5 -3 -11 9 -6 12
-16 24 -22 27 -6 2 -28 12 -49 21 -22 9 -36 11 -32 6 10 -18 -4 -12 -28 10
-21 19 -21 20 -2 14 14 -5 13 -2 -5 9 -25 15 -25 15 20 16 29 0 63 -9 99 -27z
m287 20 c16 -6 16 -7 -2 -14 -17 -7 -17 -8 4 -8 34 -1 26 -21 -8 -21 -29 0
-32 8 -21 48 1 4 8 2 27 -5z m2024 -8 c10 -12 10 -15 -4 -15 -9 0 -16 7 -16
15 0 8 2 15 4 15 2 0 9 -7 16 -15z m-268 -29 c7 -13 17 -16 40 -11 21 5 28 4
24 -4 -15 -23 -92 -9 -99 19 -6 23 21 20 35 -4z m48 20 c0 -2 -8 -10 -17 -17
-16 -13 -17 -12 -4 4 13 16 21 21 21 13z m-1866 -20 c-3 -9 -13 -12 -27 -8
-21 6 -21 6 3 13 14 4 26 7 27 8 1 1 0 -5 -3 -13z m1771 3 c15 -23 -10 -27
-145 -19 l-55 2 65 13 c84 16 127 18 135 4z m-465 -25 c0 -8 -4 -14 -10 -14
-5 0 -10 9 -10 21 0 11 5 17 10 14 6 -3 10 -13 10 -21z m248 19 c-10 -2 -28
-2 -40 0 -13 2 -5 4 17 4 22 1 32 -1 23 -4z m392 -24 c0 -5 -4 -9 -8 -9 -5 0
-9 7 -9 15 0 8 4 12 9 9 4 -3 8 -9 8 -15z m-447 -44 c-7 -21 -13 -19 -13 6 0
11 4 18 10 14 5 -3 7 -12 3 -20z m-450 -16 c-4 -15 -8 -17 -14 -8 -8 14 -3 29
11 29 4 0 6 -9 3 -21z m-544 2 c9 -6 10 -11 2 -15 -13 -8 -31 1 -31 15 0 11
11 11 29 0z m741 -1 c0 -5 -2 -10 -4 -10 -3 0 -8 5 -11 10 -3 6 -1 10 4 10 6
0 11 -4 11 -10z m480 6 c0 -3 -4 -8 -10 -11 -5 -3 -10 -1 -10 4 0 6 5 11 10
11 6 0 10 -2 10 -4z m-115 -36 c1 -10 -2 -17 -6 -14 -4 2 -7 13 -6 24 2 23 10
17 12 -10z m146 7 c-1 -4 -1 -16 -1 -28 0 -11 -4 -17 -10 -14 -14 8 -13 58 1
53 6 -2 10 -7 10 -11z m-1846 -27 c3 -5 1 -10 -4 -10 -6 0 -11 5 -11 10 0 6 2
10 4 10 3 0 8 -4 11 -10z m1968 -22 c-6 -7 -13 -22 -16 -33 -3 -11 -4 -2 -2
20 2 22 4 42 5 45 0 2 5 -1 12 -8 8 -8 8 -15 1 -24z m-1189 -6 c-8 -2 -14 -8
-14 -13 0 -6 -5 -7 -10 -4 -7 4 -7 13 0 26 9 15 13 17 24 7 12 -11 12 -14 0
-16z m-164 -2 c0 -11 -2 -20 -4 -20 -2 0 -6 9 -9 20 -3 11 -1 20 4 20 5 0 9
-9 9 -20z m1500 -30 c0 -10 -4 -22 -10 -25 -6 -4 -10 7 -10 25 0 18 4 29 10
25 6 -3 10 -15 10 -25z m-973 14 c-3 -3 -12 -4 -19 -1 -8 3 -5 6 6 6 11 1 17
-2 13 -5z m-42 -19 c39 -17 21 -18 -25 0 -19 7 -28 14 -20 14 8 0 29 -6 45
-14z m70 5 c-3 -5 -14 -10 -23 -10 -15 0 -15 2 -2 10 20 13 33 13 25 0z m155
-11 c0 -13 -4 -18 -12 -13 -8 5 -9 2 -5 -9 4 -10 1 -18 -6 -18 -7 -1 -22 -3
-34 -4 -12 -1 -49 -12 -82 -25 l-61 -22 -115 42 c-63 24 -113 45 -111 47 2 2
54 -15 115 -37 l112 -41 65 23 c35 12 64 27 64 31 0 5 -10 5 -22 2 -13 -4 -5
5 17 19 49 31 75 33 75 5z m-113 -5 c-3 -3 -12 -4 -19 -1 -8 3 -5 6 6 6 11 1
17 -2 13 -5z m-923 -46 c-3 -11 -7 -28 -8 -36 -2 -9 -8 -18 -15 -20 -9 -3 -11
2 -8 14 4 11 9 31 13 46 3 16 10 25 15 22 6 -3 7 -15 3 -26z m546 23 c0 -20
-13 -41 -25 -41 -8 0 -10 9 -7 25 4 23 32 37 32 16z m87 -53 c-3 -7 -5 -2 -5
12 0 14 2 19 5 13 2 -7 2 -19 0 -25z m216 25 c-7 -2 -19 -2 -25 0 -7 3 -2 5
12 5 14 0 19 -2 13 -5z m-292 -100 c22 -8 38 -17 36 -19 -2 -2 -22 4 -45 13
-39 15 -42 19 -40 52 l1 36 4 -33 c4 -27 11 -35 44 -49z m-115 51 c18 -14 18
-14 -6 -3 -31 14 -36 19 -24 19 6 0 19 -7 30 -16z m-396 -11 c0 -47 -14 -93
-27 -93 -9 0 -13 7 -10 18 3 9 8 34 12 55 6 37 25 52 25 20z m754 2 c6 -18 -2
-45 -15 -45 -5 0 -9 14 -9 30 0 32 14 40 24 15z m213 -27 c34 -12 60 -25 57
-29 -2 -5 -12 -5 -22 -2 -9 3 -14 3 -10 -2 10 -11 -39 -36 -57 -28 -24 9 -17
25 8 18 20 -5 20 -5 -3 9 -36 22 -50 19 -50 -8 0 -15 7 -26 18 -29 10 -3 9 -3
-4 -2 -17 1 -21 -4 -21 -24 0 -14 -6 -27 -12 -29 -6 -2 -11 -15 -11 -28 0 -20
9 -29 45 -44 25 -11 45 -22 45 -24 0 -3 -20 3 -44 14 -33 14 -46 16 -50 7 -2
-7 -5 5 -5 26 -1 22 -5 36 -11 32 -5 -3 -17 -1 -27 4 -10 5 -36 16 -58 25 -22
10 -51 26 -65 37 -24 20 -24 20 -2 14 19 -5 22 -2 23 22 1 15 3 21 6 11 4 -15
81 -54 90 -45 2 2 -10 10 -27 17 -16 7 -30 16 -30 21 0 12 1 12 43 -6 50 -21
59 -18 17 5 -23 13 -29 19 -17 20 21 0 58 -18 70 -34 5 -6 7 6 5 27 -3 23 0
36 6 34 6 -2 22 -7 36 -11 l25 -7 -25 15 c-36 22 -15 20 57 -6z m-117 -18 c0
-5 -7 -7 -15 -4 -8 4 -12 10 -9 15 6 11 24 2 24 -11z m-750 -18 c0 -5 -7 -9
-15 -9 -8 0 -15 4 -15 9 0 4 7 8 15 8 8 0 15 -4 15 -8z m-490 -22 c8 -15 8
-20 -3 -20 -7 0 -13 9 -13 20 0 11 1 20 3 20 1 0 7 -9 13 -20z m1030 -23 c0
-4 -18 2 -40 13 -52 26 -52 33 0 12 22 -9 40 -20 40 -25z m448 -13 c2 -26 -1
-35 -10 -32 -7 3 -14 21 -16 41 -2 28 0 36 10 32 8 -3 15 -22 16 -41z m-1748
6 c0 -5 -2 -10 -4 -10 -3 0 -8 5 -11 10 -3 6 -1 10 4 10 6 0 11 -4 11 -10z
m337 -22 c-3 -7 -5 -2 -5 12 0 14 2 19 5 13 2 -7 2 -19 0 -25z m1077 -18 c25
-12 46 -23 46 -26 0 -5 -60 19 -87 35 -30 17 -8 12 41 -9z m-674 -24 c0 -5 -7
-3 -15 4 -8 7 -12 17 -9 22 7 10 24 -9 24 -26z m957 -38 c-2 -13 -4 -3 -4 22
0 25 2 35 4 23 2 -13 2 -33 0 -45z m235 37 c0 -5 -5 -11 -10 -13 -5 -1 -9 4
-9 13 0 9 4 14 9 13 5 -2 10 -8 10 -13z m-1602 -65 c0 -5 -7 -10 -15 -10 -8 0
-15 5 -15 10 0 6 7 10 15 10 8 0 15 -4 15 -10z"/>
<path d="M635 891 c-2 -5 4 -11 15 -14 11 -3 20 -2 20 3 0 12 -28 21 -35 11z"/>
<path d="M705 891 c-28 -6 -28 -7 -8 -13 13 -3 26 -2 29 4 3 5 15 8 25 5 11
-3 17 -1 13 4 -6 10 -14 10 -59 0z"/>
<path d="M498 883 c7 -3 16 -2 19 1 4 3 -2 6 -13 5 -11 0 -14 -3 -6 -6z"/>
<path d="M500 850 c-9 -6 -10 -10 -3 -10 6 0 15 5 18 10 8 12 4 12 -15 0z"/>
<path d="M715 850 c3 -5 8 -10 11 -10 2 0 4 5 4 10 0 6 -5 10 -11 10 -5 0 -7
-4 -4 -10z"/>
<path d="M1195 860 c-3 -6 1 -7 9 -4 18 7 21 14 7 14 -6 0 -13 -4 -16 -10z"/>
<path d="M1970 379 c0 -5 5 -7 10 -4 6 3 10 8 10 11 0 2 -4 4 -10 4 -5 0 -10
-5 -10 -11z"/>
<path d="M1990 230 c8 -5 20 -10 25 -10 6 0 3 5 -5 10 -8 5 -19 10 -25 10 -5
0 -3 -5 5 -10z"/>
<path d="M1793 159 c22 -11 41 -18 44 -15 5 5 -62 36 -76 36 -3 -1 11 -10 32
-21z"/>
<path d="M2550 1300 c0 -16 5 -30 10 -30 6 0 10 14 10 30 0 17 -4 30 -10 30
-5 0 -10 -13 -10 -30z"/>
<path d="M2641 1254 c0 -11 3 -14 6 -6 3 7 2 16 -1 19 -3 4 -6 -2 -5 -13z"/>
<path d="M1155 1130 c-3 -5 -1 -10 4 -10 6 0 11 5 11 10 0 6 -2 10 -4 10 -3 0
-8 -4 -11 -10z"/>
<path d="M1185 1130 c-3 -5 -1 -10 4 -10 6 0 11 5 11 10 0 6 -2 10 -4 10 -3 0
-8 -4 -11 -10z"/>
<path d="M1214 1128 c-3 -4 11 -8 30 -8 20 0 36 4 36 8 0 5 -14 8 -31 8 -16 0
-32 -3 -35 -8z"/>
<path d="M890 1118 c0 -4 7 -8 15 -8 8 0 15 4 15 8 0 5 -7 9 -15 9 -8 0 -15
-4 -15 -9z"/>
<path d="M970 1119 c0 -5 9 -9 20 -9 11 0 20 4 20 8 0 4 -9 8 -20 9 -11 1 -20
-2 -20 -8z"/>
<path d="M1020 1122 c0 -4 9 -8 20 -9 11 -1 20 2 20 8 0 5 -9 9 -20 9 -11 0
-20 -4 -20 -8z"/>
<path d="M1070 1120 c0 -5 5 -10 10 -10 6 0 10 5 10 10 0 6 -4 10 -10 10 -5 0
-10 -4 -10 -10z"/>
<path d="M530 1110 c0 -5 5 -10 11 -10 5 0 7 5 4 10 -3 6 -8 10 -11 10 -2 0
-4 -4 -4 -10z"/>
<path d="M573 1113 c9 -2 23 -2 30 0 6 3 -1 5 -18 5 -16 0 -22 -2 -12 -5z"/>
<path d="M890 1088 c0 -4 7 -8 15 -8 8 0 15 4 15 8 0 5 -7 9 -15 9 -8 0 -15
-4 -15 -9z"/>
<path d="M930 1091 c0 -4 14 -8 30 -9 17 -1 30 1 30 5 0 5 -13 9 -30 9 -16 1
-30 -1 -30 -5z"/>
<path d="M1020 1089 c0 -5 9 -9 20 -9 11 0 20 4 20 8 0 4 -9 8 -20 9 -11 1
-20 -2 -20 -8z"/>
<path d="M1070 1090 c0 -5 5 -10 10 -10 6 0 10 5 10 10 0 6 -4 10 -10 10 -5 0
-10 -4 -10 -10z"/>
<path d="M1100 1092 c0 -4 9 -8 20 -9 11 -1 20 2 20 8 0 5 -9 9 -20 9 -11 0
-20 -4 -20 -8z"/>
<path d="M1150 1090 c0 -5 5 -10 10 -10 6 0 10 5 10 10 0 6 -4 10 -10 10 -5 0
-10 -4 -10 -10z"/>
<path d="M1180 1090 c0 -5 5 -10 10 -10 6 0 10 5 10 10 0 6 -4 10 -10 10 -5 0
-10 -4 -10 -10z"/>
<path d="M1210 1090 c0 -5 5 -10 10 -10 6 0 10 5 10 10 0 6 -4 10 -10 10 -5 0
-10 -4 -10 -10z"/>
<path d="M954 1058 c-3 -4 4 -8 15 -8 12 0 21 4 21 8 0 5 -7 9 -15 9 -9 0 -18
-4 -21 -9z"/>
<path d="M1000 1058 c0 -4 20 -7 45 -6 25 0 45 4 45 7 0 4 -20 7 -45 7 -25 1
-45 -3 -45 -8z"/>
<path d="M1100 1059 c0 -5 9 -9 20 -9 11 0 20 4 20 8 0 4 -9 8 -20 9 -11 1
-20 -2 -20 -8z"/>
<path d="M1155 1060 c-3 -5 -1 -10 4 -10 6 0 11 5 11 10 0 6 -2 10 -4 10 -3 0
-8 -4 -11 -10z"/>
<path d="M1185 1060 c-3 -5 -1 -10 4 -10 6 0 11 5 11 10 0 6 -2 10 -4 10 -3 0
-8 -4 -11 -10z"/>
<path d="M1215 1060 c-3 -5 -1 -10 4 -10 6 0 11 5 11 10 0 6 -2 10 -4 10 -3 0
-8 -4 -11 -10z"/>
<path d="M1245 1060 c-3 -5 -1 -10 4 -10 6 0 11 5 11 10 0 6 -2 10 -4 10 -3 0
-8 -4 -11 -10z"/>
<path d="M934 1028 c-3 -4 9 -8 25 -8 17 0 31 4 31 8 0 4 -12 8 -26 8 -14 0
-28 -4 -30 -8z"/>
<path d="M1004 1028 c-3 -4 4 -8 15 -8 12 0 21 4 21 8 0 5 -7 9 -15 9 -9 0
-18 -4 -21 -9z"/>
<path d="M1056 1032 c-3 -4 4 -9 15 -9 23 -2 25 3 4 10 -8 4 -16 3 -19 -1z"/>
<path d="M1105 1029 c-7 -10 28 -17 50 -9 16 6 14 8 -13 12 -18 2 -35 1 -37
-3z"/>
<path d="M1180 1020 c0 -5 5 -10 10 -10 6 0 10 5 10 10 0 6 -4 10 -10 10 -5 0
-10 -4 -10 -10z"/>
<path d="M1210 1020 c0 -5 5 -10 10 -10 6 0 10 5 10 10 0 6 -4 10 -10 10 -5 0
-10 -4 -10 -10z"/>
<path d="M1240 1020 c0 -5 5 -10 10 -10 6 0 10 5 10 10 0 6 -4 10 -10 10 -5 0
-10 -4 -10 -10z"/>
<path d="M880 1000 c0 -5 5 -10 10 -10 6 0 10 5 10 10 0 6 -4 10 -10 10 -5 0
-10 -4 -10 -10z"/>
<path d="M910 1002 c0 -4 14 -9 32 -10 37 -3 33 7 -6 14 -14 2 -26 1 -26 -4z"/>
<path d="M1003 994 c9 -10 197 -13 197 -4 0 5 -46 9 -102 9 -56 1 -99 -2 -95
-5z"/>
<path d="M1210 990 c0 -5 5 -10 10 -10 6 0 10 5 10 10 0 6 -4 10 -10 10 -5 0
-10 -4 -10 -10z"/>
<path d="M1245 990 c-3 -5 -1 -10 4 -10 6 0 11 5 11 10 0 6 -2 10 -4 10 -3 0
-8 -4 -11 -10z"/>
<path d="M490 965 c0 -8 5 -15 10 -15 6 0 10 7 10 15 0 8 -4 15 -10 15 -5 0
-10 -7 -10 -15z"/>
<path d="M248 725 c-2 -3 -18 -5 -36 -7 -18 -1 -32 -5 -32 -9 0 -4 -8 -10 -17
-12 -28 -7 47 -6 97 1 43 7 44 7 18 19 -14 6 -28 10 -30 8z"/>
<path d="M15 680 c-10 -15 25 -24 38 -10 10 10 7 11 -12 5 -16 -5 -21 -4 -17
4 4 6 5 11 2 11 -3 0 -8 -5 -11 -10z"/>
<path d="M2320 360 c0 -5 7 -10 17 -10 13 0 11 -4 -7 -20 -15 -13 -31 -18 -43
-14 -14 4 -17 3 -12 -6 5 -9 1 -10 -15 -5 -16 5 -20 4 -15 -5 5 -9 1 -10 -15
-5 -14 5 -20 3 -16 -3 11 -18 -60 -35 -96 -23 -17 6 -33 9 -36 7 -2 -3 7 -8
22 -12 14 -3 26 -10 26 -16 0 -5 5 -6 11 -2 14 8 60 -16 53 -28 -3 -4 0 -8 6
-8 6 0 8 -4 5 -10 -3 -5 0 -7 7 -5 8 3 113 -29 233 -71 389 -135 343 -123 503
-124 l142 0 0 74 0 74 -70 17 c-38 9 -70 21 -70 26 0 4 -6 6 -14 3 -7 -3 -68
11 -136 30 -67 20 -128 36 -137 36 -8 0 -12 4 -9 8 2 4 -5 8 -17 8 -29 0 -255
63 -289 80 -17 9 -28 10 -28 4z"/>
<path d="M2220 340 c-8 -5 -10 -10 -5 -10 6 0 17 5 25 10 8 5 11 10 5 10 -5 0
-17 -5 -25 -10z"/>
<path d="M2148 273 c7 -3 16 -2 19 1 4 3 -2 6 -13 5 -11 0 -14 -3 -6 -6z"/>
<path d="M2145 231 c-3 -5 0 -13 6 -17 8 -5 9 -3 4 6 -6 10 -4 12 9 7 10 -4
15 -3 11 3 -8 13 -22 13 -30 1z"/>
<path d="M2255 170 c27 -12 43 -12 25 0 -8 5 -22 9 -30 9 -10 0 -8 -3 5 -9z"/>
<path d="M2340 142 c8 -5 26 -13 40 -16 17 -5 20 -4 10 2 -8 5 -26 13 -40 16
-17 5 -20 4 -10 -2z"/>
<path d="M555 40 c-3 -6 1 -7 9 -4 18 7 21 14 7 14 -6 0 -13 -4 -16 -10z"/>
<path d="M2615 40 c27 -12 43 -12 25 0 -8 5 -22 9 -30 9 -10 0 -8 -3 5 -9z"/>
<path d="M2700 10 c8 -5 22 -9 30 -9 10 0 8 3 -5 9 -27 12 -43 12 -25 0z"/>
</g>
</svg>
