<?xml version="1.0" encoding="UTF-8"?>
<svg id="Layer_1" data-name="Layer 1" xmlns="http://www.w3.org/2000/svg" viewBox="0 0 613.28 753.91">
  <path d="M534.56,754.59l-151.69-149.36c-18.57-22.36-8.91-49.78,20.37-53.32,21.33-2.58,33.49-1.32,54.97-9.7,126.69-49.43,130.13-230.38,4.68-282.36-101.3-41.97-205.89,27-212.74,134.51-5.96,93.6,4.64,193.5.11,287.78-19.27,98.75-162.61,94.46-174.03-6.62l.18-472.49C5.13,179.78-22.54,96.31,27.3,37.71,74.87-18.22,165.6-7.19,197.14,59.52c28.22,59.68-3.54,121.78-62.95,143.53l1.11,473.57c11.11,25.41,45.99,24.19,56.49-1.67,5.61-93.23-5.9-192.41.49-284.95,10.9-157.83,178.39-253.97,317.32-172.41,158.57,93.09,128.15,327.45-43.08,384.27l146.76,152.05M149,104.22c0-24.38-19.77-44.15-44.15-44.15s-44.15,19.77-44.15,44.15,19.77,44.15,44.15,44.15,44.15-19.77,44.15-44.15Z"/>
</svg>