<svg width="126" height="32" viewBox="0 0 126 32" fill="none" xmlns="http://www.w3.org/2000/svg">
<rect width="126" height="32" rx="16" fill="black" fill-opacity="0.9"/>
<path d="M46.3366 10.8182V21H44.9247L39.7493 13.5327H39.6548V21H38.1186V10.8182H39.5405L44.7209 18.2955H44.8153V10.8182H46.3366ZM51.7495 21.1541C50.9971 21.1541 50.3491 20.9934 49.8056 20.6719C49.2653 20.3471 48.8477 19.8913 48.5527 19.3047C48.2611 18.7147 48.1152 18.0237 48.1152 17.2315C48.1152 16.4493 48.2611 15.7599 48.5527 15.1634C48.8477 14.5668 49.2587 14.1011 49.7857 13.7663C50.316 13.4316 50.9358 13.2642 51.6451 13.2642C52.0759 13.2642 52.4935 13.3355 52.8979 13.478C53.3023 13.6205 53.6652 13.8442 53.9867 14.1491C54.3082 14.4541 54.5617 14.8501 54.7473 15.3374C54.9329 15.8213 55.0257 16.4096 55.0257 17.1023V17.6293H48.9554V16.5156H53.5691C53.5691 16.1245 53.4895 15.7782 53.3304 15.4766C53.1713 15.1716 52.9476 14.9313 52.6593 14.7557C52.3742 14.58 52.0395 14.4922 51.655 14.4922C51.2374 14.4922 50.8728 14.5949 50.5613 14.8004C50.253 15.0026 50.0144 15.2678 49.8453 15.5959C49.6796 15.9207 49.5968 16.2737 49.5968 16.6548V17.5249C49.5968 18.0353 49.6863 18.4695 49.8652 18.8274C50.0475 19.1854 50.3011 19.4588 50.6259 19.6477C50.9507 19.8333 51.3302 19.9261 51.7644 19.9261C52.0461 19.9261 52.303 19.8864 52.535 19.8068C52.767 19.724 52.9675 19.6013 53.1365 19.4389C53.3056 19.2765 53.4348 19.076 53.5243 18.8374L54.9313 19.0909C54.8186 19.5052 54.6164 19.8681 54.3248 20.1797C54.0364 20.4879 53.6735 20.7282 53.236 20.9006C52.8018 21.0696 52.3063 21.1541 51.7495 21.1541ZM58.3169 21L56.0698 13.3636H57.606L59.1025 18.9716H59.177L60.6784 13.3636H62.2147L63.7061 18.9467H63.7807L65.2672 13.3636H66.8034L64.5613 21H63.0449L61.4938 15.4865H61.3794L59.8283 21H58.3169ZM72.0385 21V10.8182H78.4221V12.1406H73.5748V15.2429H78.089V16.5604H73.5748V19.6776H78.4817V21H72.0385ZM86.8874 13.3636L84.1183 21H82.5273L79.7532 13.3636H81.3491L83.283 19.2401H83.3626L85.2915 13.3636H86.8874ZM91.3159 21.1541C90.5635 21.1541 89.9155 20.9934 89.372 20.6719C88.8317 20.3471 88.4141 19.8913 88.1191 19.3047C87.8275 18.7147 87.6816 18.0237 87.6816 17.2315C87.6816 16.4493 87.8275 15.7599 88.1191 15.1634C88.4141 14.5668 88.8251 14.1011 89.3521 13.7663C89.8824 13.4316 90.5022 13.2642 91.2115 13.2642C91.6423 13.2642 92.06 13.3355 92.4643 13.478C92.8687 13.6205 93.2316 13.8442 93.5531 14.1491C93.8746 14.4541 94.1281 14.8501 94.3137 15.3374C94.4993 15.8213 94.5922 16.4096 94.5922 17.1023V17.6293H88.5218V16.5156H93.1355C93.1355 16.1245 93.0559 15.7782 92.8968 15.4766C92.7377 15.1716 92.514 14.9313 92.2257 14.7557C91.9406 14.58 91.6059 14.4922 91.2214 14.4922C90.8038 14.4922 90.4392 14.5949 90.1277 14.8004C89.8194 15.0026 89.5808 15.2678 89.4118 15.5959C89.246 15.9207 89.1632 16.2737 89.1632 16.6548V17.5249C89.1632 18.0353 89.2527 18.4695 89.4316 18.8274C89.6139 19.1854 89.8675 19.4588 90.1923 19.6477C90.5171 19.8333 90.8966 19.9261 91.3308 19.9261C91.6125 19.9261 91.8694 19.8864 92.1014 19.8068C92.3334 19.724 92.5339 19.6013 92.7029 19.4389C92.872 19.2765 93.0012 19.076 93.0907 18.8374L94.4977 19.0909C94.385 19.5052 94.1828 19.8681 93.8912 20.1797C93.6028 20.4879 93.2399 20.7282 92.8024 20.9006C92.3682 21.0696 91.8727 21.1541 91.3159 21.1541ZM97.728 16.4659V21H96.2415V13.3636H97.6683V14.6065H97.7628C97.9384 14.2022 98.2135 13.8774 98.5881 13.6321C98.9659 13.3868 99.4415 13.2642 100.015 13.2642C100.535 13.2642 100.991 13.3736 101.382 13.5923C101.773 13.8078 102.076 14.1293 102.292 14.5568C102.507 14.9844 102.615 15.513 102.615 16.1428V21H101.129V16.3217C101.129 15.7682 100.984 15.3357 100.696 15.0241C100.408 14.7093 100.012 14.5518 99.5078 14.5518C99.1631 14.5518 98.8565 14.6264 98.5881 14.7756C98.3229 14.9247 98.1125 15.1435 97.9567 15.4318C97.8042 15.7169 97.728 16.0616 97.728 16.4659ZM108.173 13.3636V14.5568H104.002V13.3636H108.173ZM105.121 11.5341H106.607V18.7578C106.607 19.0462 106.65 19.2633 106.737 19.4091C106.823 19.5516 106.934 19.6494 107.07 19.7024C107.209 19.7521 107.36 19.777 107.522 19.777C107.641 19.777 107.746 19.7687 107.835 19.7521C107.925 19.7356 107.994 19.7223 108.044 19.7124L108.312 20.9403C108.226 20.9735 108.104 21.0066 107.945 21.0398C107.786 21.0762 107.587 21.0961 107.348 21.0994C106.957 21.1061 106.592 21.0365 106.254 20.8906C105.916 20.7448 105.643 20.5194 105.434 20.2145C105.225 19.9096 105.121 19.5268 105.121 19.0661V11.5341Z" fill="white"/>
<path d="M17.222 23.8532C16.7856 23.8611 16.4092 23.7126 16.0928 23.4076C15.7764 23.1025 15.6142 22.7318 15.6062 22.2955L15.4027 11.1883C15.3947 10.7519 15.5433 10.3755 15.8483 10.0591C16.1533 9.74267 16.524 9.58046 16.9604 9.57247L20.9273 9.4998C21.152 9.49569 21.3419 9.56827 21.4967 9.71754C21.6516 9.86682 21.731 10.0539 21.7352 10.2786C21.7393 10.5034 21.6667 10.6933 21.5174 10.8481C21.3681 11.0029 21.1811 11.0824 20.9563 11.0865L16.9895 11.1592L17.1929 22.2664L28.3001 22.063L28.2275 18.0961C28.2233 17.8713 28.2959 17.6815 28.4452 17.5266C28.5945 17.3718 28.7815 17.2923 29.0063 17.2882C29.2311 17.2841 29.4209 17.3567 29.5757 17.5059C29.7306 17.6552 29.8101 17.8422 29.8142 18.067L29.8869 22.0339C29.8949 22.4702 29.7463 22.8466 29.4413 23.1631C29.1362 23.4795 28.7655 23.6417 28.3292 23.6497L17.222 23.8532ZM25.7601 13.3795L24.1734 13.4085C23.9486 13.4126 23.7588 13.3401 23.6039 13.1908C23.4491 13.0415 23.3696 12.8545 23.3655 12.6297C23.3614 12.4049 23.434 12.2151 23.5832 12.0602C23.7325 11.9054 23.9196 11.8259 24.1443 11.8218L25.7311 11.7927L25.702 10.206C25.6979 9.98119 25.7705 9.79137 25.9198 9.63653C26.069 9.48168 26.2561 9.4022 26.4809 9.39808C26.7056 9.39396 26.8955 9.46654 27.0503 9.61582C27.2052 9.76509 27.2846 9.95213 27.2888 10.1769L27.3178 11.7637L28.9046 11.7346C29.1294 11.7305 29.3192 11.8031 29.474 11.9523C29.6289 12.1016 29.7084 12.2886 29.7125 12.5134C29.7166 12.7382 29.644 12.928 29.4947 13.0829C29.3455 13.2377 29.1584 13.3172 28.9336 13.3213L27.3469 13.3504L27.376 14.9371C27.3801 15.1619 27.3075 15.3518 27.1582 15.5066C27.0089 15.6614 26.8219 15.7409 26.5971 15.745C26.3723 15.7492 26.1825 15.6766 26.0277 15.5273C25.8728 15.378 25.7933 15.191 25.7892 14.9662L25.7601 13.3795Z" fill="white"/>
</svg>
